<svg width="640" height="640" viewBox="0 0 640 640" xmlns="http://www.w3.org/2000/svg"><rect width="100%" height="100%" fill="white"/><g><circle data-type="point" data-label="source_trace_0" data-x="-2.6499999999999995" data-y="6.985" cx="445.65" cy="222.20999999999998" r="3" fill="red"/></g><g><circle data-type="point" data-label="source_trace_13" data-x="-2.6499999999999986" data-y="-4.476206896551725" cx="445.65000000000003" cy="382.66689655172416" r="3" fill="green"/></g><g><circle data-type="point" data-label="source_trace_13" data-x="-20.75" data-y="13.97" cx="192.25" cy="124.41999999999999" r="3" fill="blue"/></g><g><circle data-type="point" data-label="source_trace_15" data-x="-20.75" data-y="11.429999999999998" cx="192.25" cy="159.98000000000002" r="3" fill="blue"/></g><g><circle data-type="point" data-label="source_trace_4" data-x="-2.6499999999999995" data-y="1.9050000000000002" cx="445.65" cy="293.33" r="3" fill="red"/></g><g><circle data-type="point" data-label="source_trace_4" data-x="-2.6499999999999986" data-y="1.141379310344828" cx="445.65000000000003" cy="304.0206896551724" r="3" fill="green"/></g><g><circle data-type="point" data-label="source_trace_17" data-x="-20.75" data-y="8.889999999999999" cx="192.25" cy="195.54000000000002" r="3" fill="blue"/></g><g><circle data-type="point" data-label="source_trace_5" data-x="-2.6499999999999995" data-y="0.6350000000000007" cx="445.65" cy="311.11" r="3" fill="red"/></g><g><circle data-type="point" data-label="source_trace_7" data-x="-2.6499999999999995" data-y="-1.905" cx="445.65" cy="346.67" r="3" fill="red"/></g><g><circle data-type="point" data-label="source_trace_9" data-x="-2.6499999999999995" data-y="-4.444999999999999" cx="445.65" cy="382.23" r="3" fill="red"/></g><g><circle data-type="point" data-label="source_trace_12" data-x="-20.75" data-y="-13.97" cx="192.25" cy="515.58" r="3" fill="blue"/></g><g><circle data-type="point" data-label="source_trace_14" data-x="-20.75" data-y="-11.43" cx="192.25" cy="480.02" r="3" fill="red"/></g><g><circle data-type="point" data-label="source_trace_16" data-x="-20.75" data-y="-8.89" cx="192.25" cy="444.46000000000004" r="3" fill="red"/></g><g><circle data-type="point" data-label="source_trace_18" data-x="-2.6499999999999986" data-y="0.6306896551724146" cx="445.65000000000003" cy="311.1703448275862" r="3" fill="green"/></g><g><circle data-type="point" data-label="source_trace_18" data-x="-20.75" data-y="-6.3500000000000005" cx="192.25" cy="408.9" r="3" fill="green"/></g><g><circle data-type="point" data-label="source_trace_20" data-x="-2.6499999999999986" data-y="2.54" cx="445.65000000000003" cy="284.44" r="3" fill="red"/></g><g><circle data-type="point" data-label="source_trace_20" data-x="-20.75" data-y="-3.8100000000000005" cx="192.25" cy="373.34000000000003" r="3" fill="red"/></g><g><circle data-type="point" data-label="source_trace_22" data-x="-2.6499999999999986" data-y="4.205517241379312" cx="445.65000000000003" cy="261.12275862068964" r="3" fill="green"/></g><g><circle data-type="point" data-label="source_trace_22" data-x="-20.75" data-y="-1.2700000000000014" cx="192.25" cy="337.78000000000003" r="3" fill="green"/></g><g><circle data-type="point" data-label="source_trace_23" data-x="-2.6499999999999986" data-y="5.226896551724138" cx="445.65000000000003" cy="246.82344827586206" r="3" fill="green"/></g><g><circle data-type="point" data-label="source_trace_23" data-x="-20.75" data-y="1.2699999999999996" cx="192.25" cy="302.22" r="3" fill="green"/></g><g><circle data-type="point" data-label="source_trace_19" data-x="-2.6499999999999986" data-y="1.2700000000000005" cx="445.65000000000003" cy="302.21999999999997" r="3" fill="red"/></g><g><circle data-type="point" data-label="source_trace_19" data-x="-20.75" data-y="6.35" cx="192.25" cy="231.10000000000002" r="3" fill="red"/></g><g><circle data-type="point" data-label="source_trace_21" data-x="-2.6499999999999986" data-y="3.6948275862068964" cx="445.65000000000003" cy="268.27241379310345" r="3" fill="green"/></g><g><circle data-type="point" data-label="source_trace_21" data-x="-20.75" data-y="3.8100000000000005" cx="192.25" cy="266.65999999999997" r="3" fill="green"/></g><g><circle data-type="point" data-label="source_trace_0" data-x="-2.6499999999999986" data-y="-18.89" cx="445.65000000000003" cy="584.46" r="3" fill="blue"/></g><g><circle data-type="point" data-label="source_trace_12" data-x="-2.6499999999999986" data-y="-17.78" cx="445.65000000000003" cy="568.9200000000001" r="3" fill="blue"/></g><g><circle data-type="point" data-label="source_trace_14" data-x="-2.6499999999999986" data-y="-16.669999999999998" cx="445.65000000000003" cy="553.38" r="3" fill="red"/></g><g><circle data-type="point" data-label="source_trace_15" data-x="-2.6499999999999986" data-y="-13.34" cx="445.65000000000003" cy="506.76" r="3" fill="red"/></g><g><circle data-type="point" data-label="source_trace_16" data-x="-2.6499999999999986" data-y="-14.45" cx="445.65000000000003" cy="522.3" r="3" fill="red"/></g><g><circle data-type="point" data-label="source_trace_17" data-x="-2.6499999999999986" data-y="-15.559999999999999" cx="445.65000000000003" cy="537.8399999999999" r="3" fill="red"/></g><g><circle data-type="point" data-label="source_trace_5" data-x="-2.6499999999999986" data-y="-10.009999999999998" cx="445.65000000000003" cy="460.14" r="3" fill="red"/></g><g><circle data-type="point" data-label="source_trace_7" data-x="-2.6499999999999986" data-y="-11.12" cx="445.65000000000003" cy="475.67999999999995" r="3" fill="red"/></g><g><circle data-type="point" data-label="source_trace_9" data-x="-2.6499999999999986" data-y="-12.23" cx="445.65000000000003" cy="491.22" r="3" fill="red"/></g><g><polyline data-points="-2.5,4.25 -3,3.75 -3.5,3.25 -4,2.75 -4.5,2.25 -5,1.75 -5.5,1.25 -6,1.25" data-type="line" data-label="" points="447.75,260.5 440.75,267.5 433.75,274.5 426.75,281.5 419.75,288.5 412.75,295.5 405.75,302.5 398.75,302.5" fill="none" stroke="green" stroke-width="1.4000000000000001"/></g><g><polyline data-points="-6,1.25 -6.5,0.75 -7,0.25 -7.5,0.25 -8,0.25 -8.5,0.25 -9,0.25 -9.5,0.25 -10,0.25 -10.5,0.25 -11,0.25 -11.5,0.25 -12,0.25 -12.5,0.25 -13,0.25 -13.5,0.25 -14,0.25 -14.5,0.25 -15,0.25 -15.5,0.25" data-type="line" data-label="" points="398.75,302.5 391.75,309.5 384.75,316.5 377.75,316.5 370.75,316.5 363.75,316.5 356.75,316.5 349.75,316.5 342.75,316.5 335.75,316.5 328.75,316.5 321.75,316.5 314.75,316.5 307.75,316.5 300.75,316.5 293.75,316.5 286.75,316.5 279.75,316.5 272.75,316.5 265.75,316.5" fill="none" stroke="red" stroke-width="1.4000000000000001"/></g><g><polyline data-points="-15.5,0.25 -16,0.25 -16.5,0.25 -17,0.25 -17.5,0.25 -18,0.25 -18.5,0.25 -19,0.25 -19.5,-0.25 -20,-0.75 -20.5,-1.25" data-type="line" data-label="" points="265.75,316.5 258.75,316.5 251.75,316.5 244.75,316.5 237.75,316.5 230.75,316.5 223.75,316.5 216.75,316.5 209.75,323.5 202.75,330.5 195.75,337.5" fill="none" stroke="green" stroke-width="1.4000000000000001"/></g><g><polyline data-points="-20.5,-13.75 -20,-14.25 -19.5,-14.75 -19,-15.25 -18.5,-15.75 -18,-16.25 -17.5,-16.25 -17,-16.25 -16.5,-16.25 -16,-16.25 -15.5,-16.25 -15,-16.25 -14.5,-16.25 -14,-16.25 -13.5,-16.25 -13,-16.25 -12.5,-16.25 -12,-16.25 -11.5,-16.25 -11,-16.25 -10.5,-16.25 -10,-16.25 -9.5,-16.25 -9,-16.25 -8.5,-16.25 -8,-16.25 -7.5,-16.25 -7,-16.25 -6.5,-16.25 -6,-16.25 -5.5,-16.25 -5,-16.25 -4.5,-16.25 -4,-16.25 -3.5,-16.75 -3,-17.25 -2.5,-17.75" data-type="line" data-label="" points="195.75,512.5 202.75,519.5 209.75,526.5 216.75,533.5 223.75,540.5 230.75,547.5 237.75,547.5 244.75,547.5 251.75,547.5 258.75,547.5 265.75,547.5 272.75,547.5 279.75,547.5 286.75,547.5 293.75,547.5 300.75,547.5 307.75,547.5 314.75,547.5 321.75,547.5 328.75,547.5 335.75,547.5 342.75,547.5 349.75,547.5 356.75,547.5 363.75,547.5 370.75,547.5 377.75,547.5 384.75,547.5 391.75,547.5 398.75,547.5 405.75,547.5 412.75,547.5 419.75,547.5 426.75,547.5 433.75,554.5 440.75,561.5 447.75,568.5" fill="none" stroke="blue" stroke-width="1.4000000000000001"/></g><g><polyline data-points="-2.5,1.25 -3,1.75 -3.5,2.25 -4,2.75 -4.5,3.25 -5,3.75 -5.5,4.25 -6,4.75 -6.5,4.75 -7,4.75 -7.5,4.75 -8,4.75 -8.5,4.75 -9,4.75 -9.5,4.75 -10,4.75 -10.5,4.75 -11,4.75 -11.5,4.75 -12,4.75 -12.5,5.25 -13,5.25 -13.5,5.25 -14,5.25 -14.5,4.75 -15,4.75 -15.5,4.75 -16,4.75 -16.5,4.75 -17,4.75 -17.5,4.75 -18,4.75 -18.5,4.75 -19,4.75 -19.5,5.25 -20,5.75 -20.5,6.25" data-type="line" data-label="" points="447.75,302.5 440.75,295.5 433.75,288.5 426.75,281.5 419.75,274.5 412.75,267.5 405.75,260.5 398.75,253.5 391.75,253.5 384.75,253.5 377.75,253.5 370.75,253.5 363.75,253.5 356.75,253.5 349.75,253.5 342.75,253.5 335.75,253.5 328.75,253.5 321.75,253.5 314.75,253.5 307.75,246.5 300.75,246.5 293.75,246.5 286.75,246.5 279.75,253.5 272.75,253.5 265.75,253.5 258.75,253.5 251.75,253.5 244.75,253.5 237.75,253.5 230.75,253.5 223.75,253.5 216.75,253.5 209.75,246.5 202.75,239.5 195.75,232.5" fill="none" stroke="red" stroke-width="1.4000000000000001"/></g><g><polyline data-points="-20.5,-11.25 -20,-11.75 -19.5,-12.25 -19,-12.75 -18.5,-13.25 -18,-13.75 -17.5,-14.25 -17,-14.75 -16.5,-14.75" data-type="line" data-label="" points="195.75,477.5 202.75,484.5 209.75,491.5 216.75,498.5 223.75,505.5 230.75,512.5 237.75,519.5 244.75,526.5 251.75,526.5" fill="none" stroke="red" stroke-width="1.4000000000000001"/></g><g><polyline data-points="-16.5,-14.75 -16,-14.75 -15.5,-14.75 -15,-14.75 -14.5,-14.75 -14,-14.75 -13.5,-14.75 -13,-14.75 -12.5,-14.75 -12,-14.75 -11.5,-14.75 -11,-14.75 -10.5,-14.75 -10,-14.75 -9.5,-14.75 -9,-14.75 -8.5,-14.75 -8,-14.75 -7.5,-14.75 -7,-14.75 -6.5,-14.75 -6,-14.75" data-type="line" data-label="" points="251.75,526.5 258.75,526.5 265.75,526.5 272.75,526.5 279.75,526.5 286.75,526.5 293.75,526.5 300.75,526.5 307.75,526.5 314.75,526.5 321.75,526.5 328.75,526.5 335.75,526.5 342.75,526.5 349.75,526.5 356.75,526.5 363.75,526.5 370.75,526.5 377.75,526.5 384.75,526.5 391.75,526.5 398.75,526.5" fill="none" stroke="blue" stroke-width="1.4000000000000001"/></g><g><polyline data-points="-6,-14.75 -5.5,-15.25 -5,-15.75 -5,-16.25 -4.5,-16.75 -4,-16.75 -3.5,-16.75 -3,-16.75 -2.5,-16.75" data-type="line" data-label="" points="398.75,526.5 405.75,533.5 412.75,540.5 412.75,547.5 419.75,554.5 426.75,554.5 433.75,554.5 440.75,554.5 447.75,554.5" fill="none" stroke="red" stroke-width="1.4000000000000001"/></g><g><polyline data-points="-2.5,2.75 -3,3.25 -3.5,3.75 -4,4.25 -4,4.75 -4.5,5.25 -5,5.75" data-type="line" data-label="" points="447.75,281.5 440.75,274.5 433.75,267.5 426.75,260.5 426.75,253.5 419.75,246.5 412.75,239.5" fill="none" stroke="red" stroke-width="1.4000000000000001"/></g><g><polyline data-points="-5,5.75 -5.5,5.25 -6,4.75 -6.5,4.25 -7,3.75 -7.5,3.25 -8,2.75 -8.5,2.25 -9,1.75 -9.5,1.25 -9.5,0.75 -10,0.25 -10.5,-0.25 -11,-0.75 -11.5,-1.25 -12,-1.75 -12.5,-2.25 -13,-2.75 -13.5,-3.25 -14,-3.75 -14.5,-3.75 -15,-3.75 -15.5,-3.75 -16,-3.75 -16.5,-3.75 -17,-3.75 -17.5,-3.75 -18,-3.75 -18.5,-3.75" data-type="line" data-label="" points="412.75,239.5 405.75,246.5 398.75,253.5 391.75,260.5 384.75,267.5 377.75,274.5 370.75,281.5 363.75,288.5 356.75,295.5 349.75,302.5 349.75,309.5 342.75,316.5 335.75,323.5 328.75,330.5 321.75,337.5 314.75,344.5 307.75,351.5 300.75,358.5 293.75,365.5 286.75,372.5 279.75,372.5 272.75,372.5 265.75,372.5 258.75,372.5 251.75,372.5 244.75,372.5 237.75,372.5 230.75,372.5 223.75,372.5" fill="none" stroke="blue" stroke-width="1.4000000000000001"/></g><g><polyline data-points="-18.5,-3.75 -19,-3.75 -19.5,-3.75 -20,-3.75 -20.5,-3.75" data-type="line" data-label="" points="223.75,372.5 216.75,372.5 209.75,372.5 202.75,372.5 195.75,372.5" fill="none" stroke="red" stroke-width="1.4000000000000001"/></g><g><polyline data-points="-2.5,5.25 -3,5.75 -2.5,6.25 -3,6.75 -3.5,7.25 -4,6.75 -4.5,6.75 -5,6.75 -5.5,6.25 -6,6.25 -6.5,6.25" data-type="line" data-label="" points="447.75,246.5 440.75,239.5 447.75,232.5 440.75,225.5 433.75,218.5 426.75,225.5 419.75,225.5 412.75,225.5 405.75,232.5 398.75,232.5 391.75,232.5" fill="none" stroke="green" stroke-width="1.4000000000000001"/></g><g><polyline data-points="-6.5,6.25 -7,5.75 -7.5,5.25 -8,4.75 -8.5,4.25 -9,3.75 -9.5,3.75 -10,3.75 -10.5,3.25 -11,3.25 -11.5,2.75 -12,2.25 -12.5,1.75 -12.5,1.25 -13,0.75 -13.5,0.75 -14,0.75 -14.5,1.25 -15,1.25 -15.5,1.75" data-type="line" data-label="" points="391.75,232.5 384.75,239.5 377.75,246.5 370.75,253.5 363.75,260.5 356.75,267.5 349.75,267.5 342.75,267.5 335.75,274.5 328.75,274.5 321.75,281.5 314.75,288.5 307.75,295.5 307.75,302.5 300.75,309.5 293.75,309.5 286.75,309.5 279.75,302.5 272.75,302.5 265.75,295.5" fill="none" stroke="blue" stroke-width="1.4000000000000001"/></g><g><polyline data-points="-15.5,1.75 -16,1.25 -16.5,1.25 -17,1.25 -17.5,1.25 -18,1.25 -18.5,1.25 -19,1.25 -19.5,1.25 -20,1.25 -20.5,1.25" data-type="line" data-label="" points="265.75,295.5 258.75,302.5 251.75,302.5 244.75,302.5 237.75,302.5 230.75,302.5 223.75,302.5 216.75,302.5 209.75,302.5 202.75,302.5 195.75,302.5" fill="none" stroke="green" stroke-width="1.4000000000000001"/></g><g><polyline data-points="-2.5,-4.25 -3,-4.25 -3.5,-4.25 -4,-3.75 -4.5,-3.25 -5,-3.25 -5.5,-2.75 -6,-2.75 -6.5,-2.25 -7,-1.75 -7.5,-1.25 -8,-0.75 -8.5,-0.25 -9,0.25 -9.5,0.75 -10,1.25 -10.5,1.75 -11,2.25 -11,2.75 -11,3.25 -11.5,3.75 -12,4.25 -12.5,4.75 -13,5.25 -13.5,5.75 -14,6.25 -14.5,6.75 -15,7.25 -15.5,7.75 -16,8.25 -16.5,8.75 -17,9.25 -17.5,9.75 -18,10.25 -18.5,10.75 -19,11.25" data-type="line" data-label="" points="447.75,379.5 440.75,379.5 433.75,379.5 426.75,372.5 419.75,365.5 412.75,365.5 405.75,358.5 398.75,358.5 391.75,351.5 384.75,344.5 377.75,337.5 370.75,330.5 363.75,323.5 356.75,316.5 349.75,309.5 342.75,302.5 335.75,295.5 328.75,288.5 328.75,281.5 328.75,274.5 321.75,267.5 314.75,260.5 307.75,253.5 300.75,246.5 293.75,239.5 286.75,232.5 279.75,225.5 272.75,218.5 265.75,211.5 258.75,204.5 251.75,197.5 244.75,190.5 237.75,183.5 230.75,176.5 223.75,169.5 216.75,162.5" fill="none" stroke="green" stroke-width="1.4000000000000001"/></g><g><polyline data-points="-19,11.25 -19.5,11.75 -19.5,12.25 -20,12.75 -20,13.25 -20.5,13.75" data-type="line" data-label="" points="216.75,162.5 209.75,155.5 209.75,148.5 202.75,141.5 202.75,134.5 195.75,127.5" fill="none" stroke="blue" stroke-width="1.4000000000000001"/></g><g><polyline data-points="-2.5,3.75 -3,3.75 -3.5,3.75 -4,3.75 -4.5,4.25 -5,4.25 -5.5,4.75 -6,4.75 -6.5,4.75 -7,4.75 -7.5,4.75 -8,4.75 -8.5,4.75 -9,5.25 -9.5,5.75 -10,6.25 -10.5,6.75 -11,7.25 -11.5,7.25 -12,7.25 -12.5,7.25 -13,7.25" data-type="line" data-label="" points="447.75,267.5 440.75,267.5 433.75,267.5 426.75,267.5 419.75,260.5 412.75,260.5 405.75,253.5 398.75,253.5 391.75,253.5 384.75,253.5 377.75,253.5 370.75,253.5 363.75,253.5 356.75,246.5 349.75,239.5 342.75,232.5 335.75,225.5 328.75,218.5 321.75,218.5 314.75,218.5 307.75,218.5 300.75,218.5" fill="none" stroke="green" stroke-width="1.4000000000000001"/></g><g><polyline data-points="-13,7.25 -13.5,7.25 -14,6.75 -14.5,6.75 -15,6.75 -15.5,7.25 -16,7.25 -16.5,6.75 -17,6.25 -17.5,6.25 -18,6.25" data-type="line" data-label="" points="300.75,218.5 293.75,218.5 286.75,225.5 279.75,225.5 272.75,225.5 265.75,218.5 258.75,218.5 251.75,225.5 244.75,232.5 237.75,232.5 230.75,232.5" fill="none" stroke="red" stroke-width="1.4000000000000001"/></g><g><polyline data-points="-18,6.25 -18.5,5.75 -18.5,5.25 -19,4.75 -19.5,4.25 -20,4.25 -20.5,3.75" data-type="line" data-label="" points="230.75,232.5 223.75,239.5 223.75,246.5 216.75,253.5 209.75,260.5 202.75,260.5 195.75,267.5" fill="none" stroke="green" stroke-width="1.4000000000000001"/></g><g><polyline data-points="-2.5,-4.25 -3,-4.75 -3,-5.25 -3.5,-5.75 -3.5,-6.25" data-type="line" data-label="" points="447.75,379.5 440.75,386.5 440.75,393.5 433.75,400.5 433.75,407.5" fill="none" stroke="red" stroke-width="1.4000000000000001"/></g><g><polyline data-points="-3.5,-6.25 -4,-6.75 -4.5,-7.25 -5,-7.75 -5.5,-8.25 -5,-8.75 -5,-9.25 -5,-9.75 -4.5,-10.25 -4,-10.75 -4,-11.25 -3.5,-11.75" data-type="line" data-label="" points="433.75,407.5 426.75,414.5 419.75,421.5 412.75,428.5 405.75,435.5 412.75,442.5 412.75,449.5 412.75,456.5 419.75,463.5 426.75,470.5 426.75,477.5 433.75,484.5" fill="none" stroke="blue" stroke-width="1.4000000000000001"/></g><g><polyline data-points="-3.5,-11.75 -3,-12.25 -2.5,-12.25" data-type="line" data-label="" points="433.75,484.5 440.75,491.5 447.75,491.5" fill="none" stroke="red" stroke-width="1.4000000000000001"/></g><g><polyline data-points="-2.5,1.75 -3,2.25 -3.5,1.75" data-type="line" data-label="" points="447.75,295.5 440.75,288.5 433.75,295.5" fill="none" stroke="red" stroke-width="1.4000000000000001"/></g><g><polyline data-points="-3.5,1.75 -3,1.75 -2.5,1.25" data-type="line" data-label="" points="433.75,295.5 440.75,295.5 447.75,302.5" fill="none" stroke="green" stroke-width="1.4000000000000001"/></g><g><polyline data-points="-2.5,6.75 -3,7.25 -3.5,7.25 -4,7.75 -4.5,8.25" data-type="line" data-label="" points="447.75,225.5 440.75,218.5 433.75,218.5 426.75,211.5 419.75,204.5" fill="none" stroke="red" stroke-width="1.4000000000000001"/></g><g><polyline data-points="-4.5,8.25 -4.5,7.75 -4.5,7.25 -4.5,6.75 -5,6.25 -5,5.75 -5.5,5.25 -6,4.75 -6,4.25 -6,3.75 -6,3.25 -6,2.75 -6.5,2.25 -7,1.75 -7.5,1.25 -8,0.75 -8,0.25 -8.5,-0.25 -9,-0.75 -9,-1.25 -9,-1.75 -9,-2.25 -9.5,-2.75 -9.5,-3.25 -10,-3.75 -10,-4.25 -10,-4.75 -10,-5.25 -9.5,-5.75 -9.5,-6.25 -9.5,-6.75 -9.5,-7.25 -9.5,-7.75 -9,-8.25" data-type="line" data-label="" points="419.75,204.5 419.75,211.5 419.75,218.5 419.75,225.5 412.75,232.5 412.75,239.5 405.75,246.5 398.75,253.5 398.75,260.5 398.75,267.5 398.75,274.5 398.75,281.5 391.75,288.5 384.75,295.5 377.75,302.5 370.75,309.5 370.75,316.5 363.75,323.5 356.75,330.5 356.75,337.5 356.75,344.5 356.75,351.5 349.75,358.5 349.75,365.5 342.75,372.5 342.75,379.5 342.75,386.5 342.75,393.5 349.75,400.5 349.75,407.5 349.75,414.5 349.75,421.5 349.75,428.5 356.75,435.5" fill="none" stroke="blue" stroke-width="1.4000000000000001"/></g><g><polyline data-points="-9,-8.25 -8.5,-8.75 -8.5,-9.25 -8.5,-9.75 -8.5,-10.25 -8,-10.75 -8,-11.25 -7.5,-11.75 -7.5,-12.25 -7,-12.75 -7,-13.25 -6.5,-13.75 -6,-14.25 -5.5,-14.75 -5.5,-15.25 -5.5,-15.75 -5.5,-16.25 -5,-16.75 -5,-17.25 -5,-17.75 -5,-18.25" data-type="line" data-label="" points="356.75,435.5 363.75,442.5 363.75,449.5 363.75,456.5 363.75,463.5 370.75,470.5 370.75,477.5 377.75,484.5 377.75,491.5 384.75,498.5 384.75,505.5 391.75,512.5 398.75,519.5 405.75,526.5 405.75,533.5 405.75,540.5 405.75,547.5 412.75,554.5 412.75,561.5 412.75,568.5 412.75,575.5" fill="none" stroke="green" stroke-width="1.4000000000000001"/></g><g><polyline data-points="-5,-18.25 -4.5,-18.75 -4,-18.75 -3.5,-19.25 -3,-19.25 -2.5,-18.75" data-type="line" data-label="" points="412.75,575.5 419.75,582.5 426.75,582.5 433.75,589.5 440.75,589.5 447.75,582.5" fill="none" stroke="blue" stroke-width="1.4000000000000001"/></g><g><polyline data-points="-20.5,11.25 -20.5,10.75 -20,10.25 -19.5,9.75" data-type="line" data-label="" points="195.75,162.5 195.75,169.5 202.75,176.5 209.75,183.5" fill="none" stroke="blue" stroke-width="1.4000000000000001"/></g><g><polyline data-points="-19.5,9.75 -19,9.25 -19,8.75 -18.5,8.25 -18,7.75 -17.5,7.25 -17,6.75 -16.5,6.25 -16,5.75 -15.5,5.25 -15,4.75 -15,4.25 -15,3.75 -15.5,3.25 -15,2.75 -15,2.25 -15,1.75 -15,1.25 -14.5,0.75 -14,0.25 -13.5,-0.25 -13,-0.75 -12.5,-1.25 -12,-1.75 -11.5,-2.25 -11,-2.75" data-type="line" data-label="" points="209.75,183.5 216.75,190.5 216.75,197.5 223.75,204.5 230.75,211.5 237.75,218.5 244.75,225.5 251.75,232.5 258.75,239.5 265.75,246.5 272.75,253.5 272.75,260.5 272.75,267.5 265.75,274.5 272.75,281.5 272.75,288.5 272.75,295.5 272.75,302.5 279.75,309.5 286.75,316.5 293.75,323.5 300.75,330.5 307.75,337.5 314.75,344.5 321.75,351.5 328.75,358.5" fill="none" stroke="green" stroke-width="1.4000000000000001"/></g><g><polyline data-points="-11,-2.75 -10.5,-3.25 -10.5,-3.75 -10.5,-4.25 -10.5,-4.75 -10,-5.25 -9.5,-5.75 -9,-6.25 -8.5,-6.75 -8,-7.25 -8,-7.75 -8,-8.25 -7.5,-8.75 -8,-9.25 -8,-9.75 -7.5,-10.25 -7,-10.75 -7,-11.25 -6.5,-11.75 -6,-12.25 -5.5,-12.75 -5,-12.75 -4.5,-12.75 -4,-13.25 -3.5,-13.25 -3,-13.25 -2.5,-13.25" data-type="line" data-label="" points="328.75,358.5 335.75,365.5 335.75,372.5 335.75,379.5 335.75,386.5 342.75,393.5 349.75,400.5 356.75,407.5 363.75,414.5 370.75,421.5 370.75,428.5 370.75,435.5 377.75,442.5 370.75,449.5 370.75,456.5 377.75,463.5 384.75,470.5 384.75,477.5 391.75,484.5 398.75,491.5 405.75,498.5 412.75,498.5 419.75,498.5 426.75,505.5 433.75,505.5 440.75,505.5 447.75,505.5" fill="none" stroke="red" stroke-width="1.4000000000000001"/></g><g><polyline data-points="-2.5,0.75 -3,0.25 -3.5,-0.25 -4,0.25 -4.5,0.25 -5,0.75 -5.5,0.75 -6,0.25 -6.5,-0.25" data-type="line" data-label="" points="447.75,309.5 440.75,316.5 433.75,323.5 426.75,316.5 419.75,316.5 412.75,309.5 405.75,309.5 398.75,316.5 391.75,323.5" fill="none" stroke="green" stroke-width="1.4000000000000001"/></g><g><polyline data-points="-6.5,-0.25 -7,-0.75 -7.5,-0.75 -8,-0.75 -8.5,-0.75 -9,-0.75 -9.5,-0.75 -10,-0.75 -10.5,-1.25 -11,-1.25 -11.5,-1.25 -12,-1.75 -12.5,-2.25 -13,-2.75 -13.5,-3.25 -14,-3.75 -14.5,-4.25 -15,-4.75 -15.5,-4.75 -16,-4.75 -16.5,-4.75 -17,-4.75 -17.5,-4.75 -18,-5.25" data-type="line" data-label="" points="391.75,323.5 384.75,330.5 377.75,330.5 370.75,330.5 363.75,330.5 356.75,330.5 349.75,330.5 342.75,330.5 335.75,337.5 328.75,337.5 321.75,337.5 314.75,344.5 307.75,351.5 300.75,358.5 293.75,365.5 286.75,372.5 279.75,379.5 272.75,386.5 265.75,386.5 258.75,386.5 251.75,386.5 244.75,386.5 237.75,386.5 230.75,393.5" fill="none" stroke="red" stroke-width="1.4000000000000001"/></g><g><polyline data-points="-18,-5.25 -18.5,-4.75 -19,-4.75 -19.5,-5.25 -20,-5.75 -20.5,-6.25" data-type="line" data-label="" points="230.75,393.5 223.75,386.5 216.75,386.5 209.75,393.5 202.75,400.5 195.75,407.5" fill="none" stroke="green" stroke-width="1.4000000000000001"/></g><g><polyline data-points="-2.5,0.75 -3,0.25 -3.5,-0.25 -4,-0.75 -4.5,-1.25 -5,-1.25 -5.5,-1.75 -6,-2.25 -6,-2.75 -6.5,-3.25 -6.5,-3.75 -6.5,-4.25 -7,-4.75 -7,-5.25" data-type="line" data-label="" points="447.75,309.5 440.75,316.5 433.75,323.5 426.75,330.5 419.75,337.5 412.75,337.5 405.75,344.5 398.75,351.5 398.75,358.5 391.75,365.5 391.75,372.5 391.75,379.5 384.75,386.5 384.75,393.5" fill="none" stroke="red" stroke-width="1.4000000000000001"/></g><g><polyline data-points="-7,-5.25 -6.5,-5.75 -6,-6.25 -5.5,-6.75 -5,-7.25 -5,-7.75 -4.5,-8.25 -4,-8.75 -3.5,-9.25" data-type="line" data-label="" points="384.75,393.5 391.75,400.5 398.75,407.5 405.75,414.5 412.75,421.5 412.75,428.5 419.75,435.5 426.75,442.5 433.75,449.5" fill="none" stroke="green" stroke-width="1.4000000000000001"/></g><g><polyline data-points="-3.5,-9.25 -3,-9.75 -2.5,-10.25" data-type="line" data-label="" points="433.75,449.5 440.75,456.5 447.75,463.5" fill="none" stroke="red" stroke-width="1.4000000000000001"/></g><g><polyline data-points="-2.5,-1.75 -3,-1.25 -3.5,-1.75 -4,-2.25 -4.5,-2.75 -5,-3.25 -5,-3.75 -5.5,-4.25 -5.5,-4.75 -5.5,-5.25 -5.5,-5.75 -5.5,-6.25 -5.5,-6.75 -5,-7.25 -5,-7.75 -5,-8.25 -5.5,-8.75 -5,-9.25 -4.5,-9.75 -4,-10.25 -3.5,-10.75 -3,-11.25 -2.5,-11.25" data-type="line" data-label="" points="447.75,344.5 440.75,337.5 433.75,344.5 426.75,351.5 419.75,358.5 412.75,365.5 412.75,372.5 405.75,379.5 405.75,386.5 405.75,393.5 405.75,400.5 405.75,407.5 405.75,414.5 412.75,421.5 412.75,428.5 412.75,435.5 405.75,442.5 412.75,449.5 419.75,456.5 426.75,463.5 433.75,470.5 440.75,477.5 447.75,477.5" fill="none" stroke="red" stroke-width="1.4000000000000001"/></g><g><polyline data-points="-20.5,8.75 -20,8.25 -19.5,7.75 -19,7.25 -19,6.75 -19,6.25 -18.5,5.75 -18,5.25 -17.5,4.75 -17,4.25 -17,3.75 -17,3.25 -17,2.75 -17,2.25 -17,1.75 -16.5,1.25 -16.5,0.75 -16.5,0.25 -16,-0.25 -15.5,-0.75 -15,-1.25 -14.5,-1.75" data-type="line" data-label="" points="195.75,197.5 202.75,204.5 209.75,211.5 216.75,218.5 216.75,225.5 216.75,232.5 223.75,239.5 230.75,246.5 237.75,253.5 244.75,260.5 244.75,267.5 244.75,274.5 244.75,281.5 244.75,288.5 244.75,295.5 251.75,302.5 251.75,309.5 251.75,316.5 258.75,323.5 265.75,330.5 272.75,337.5 279.75,344.5" fill="none" stroke="blue" stroke-width="1.4000000000000001"/></g><g><polyline data-points="-14.5,-1.75 -14,-2.25 -13.5,-2.75 -13,-3.25 -12.5,-3.75 -12,-4.25 -11.5,-4.75 -11,-5.25 -10.5,-5.75 -10.5,-6.25 -10.5,-6.75 -10.5,-7.25 -10.5,-7.75 -10.5,-8.25 -10.5,-8.75 -10.5,-9.25 -10,-9.75" data-type="line" data-label="" points="279.75,344.5 286.75,351.5 293.75,358.5 300.75,365.5 307.75,372.5 314.75,379.5 321.75,386.5 328.75,393.5 335.75,400.5 335.75,407.5 335.75,414.5 335.75,421.5 335.75,428.5 335.75,435.5 335.75,442.5 335.75,449.5 342.75,456.5" fill="none" stroke="green" stroke-width="1.4000000000000001"/></g><g><polyline data-points="-10,-9.75 -9.5,-10.25 -9,-10.75 -8.5,-11.25 -8,-11.75 -7.5,-12.25 -7,-12.75 -7,-13.25 -6.5,-13.75 -6,-14.25 -5.5,-14.75 -5,-15.25 -4.5,-15.75 -4,-15.75 -3.5,-16.25 -3,-15.75 -2.5,-15.75" data-type="line" data-label="" points="342.75,456.5 349.75,463.5 356.75,470.5 363.75,477.5 370.75,484.5 377.75,491.5 384.75,498.5 384.75,505.5 391.75,512.5 398.75,519.5 405.75,526.5 412.75,533.5 419.75,540.5 426.75,540.5 433.75,547.5 440.75,540.5 447.75,540.5" fill="none" stroke="red" stroke-width="1.4000000000000001"/></g><g><polyline data-points="-20.5,-8.75 -20,-8.25 -19.5,-8.25 -19,-8.25 -18.5,-8.75 -18,-9.25 -17.5,-9.75 -17,-10.25 -16.5,-10.75 -16,-11.25 -15.5,-11.75 -15,-12.25 -14.5,-12.75 -14,-12.75 -13.5,-12.75 -13,-12.75 -12.5,-12.75 -12,-12.75 -11.5,-12.75 -11,-12.75 -10.5,-12.75 -10,-12.75 -9.5,-12.75 -9,-12.75 -8.5,-13.25" data-type="line" data-label="" points="195.75,442.5 202.75,435.5 209.75,435.5 216.75,435.5 223.75,442.5 230.75,449.5 237.75,456.5 244.75,463.5 251.75,470.5 258.75,477.5 265.75,484.5 272.75,491.5 279.75,498.5 286.75,498.5 293.75,498.5 300.75,498.5 307.75,498.5 314.75,498.5 321.75,498.5 328.75,498.5 335.75,498.5 342.75,498.5 349.75,498.5 356.75,498.5 363.75,505.5" fill="none" stroke="red" stroke-width="1.4000000000000001"/></g><g><polyline data-points="-8.5,-13.25 -8,-13.25 -7.5,-13.25 -7,-13.25 -6.5,-13.75 -6,-14.25 -5.5,-13.75 -5,-13.75 -4.5,-13.75 -4,-13.75 -3.5,-14.25" data-type="line" data-label="" points="363.75,505.5 370.75,505.5 377.75,505.5 384.75,505.5 391.75,512.5 398.75,519.5 405.75,512.5 412.75,512.5 419.75,512.5 426.75,512.5 433.75,519.5" fill="none" stroke="blue" stroke-width="1.4000000000000001"/></g><g><polyline data-points="-3.5,-14.25 -3,-14.25 -2.5,-14.25" data-type="line" data-label="" points="433.75,519.5 440.75,519.5 447.75,519.5" fill="none" stroke="red" stroke-width="1.4000000000000001"/></g><g><rect data-type="rect" data-label="" data-x="-11.7" data-y="0" x="192.25" y="40" width="253.40000000000003" height="560" fill="none" stroke="gray" stroke-width="0.07142857142857142"/></g><circle data-type="circle" data-label="" data-x="-6" data-y="1.25" cx="398.75" cy="302.5" r="2.1" fill="rgba(0,0,0,0.3)" stroke="black" stroke-width="0.07142857142857142"/><circle data-type="circle" data-label="" data-x="-15.5" data-y="0.25" cx="265.75" cy="316.5" r="2.1" fill="rgba(0,0,0,0.3)" stroke="black" stroke-width="0.07142857142857142"/><circle data-type="circle" data-label="" data-x="-16.5" data-y="-14.75" cx="251.75" cy="526.5" r="2.1" fill="rgba(0,0,0,0.3)" stroke="black" stroke-width="0.07142857142857142"/><circle data-type="circle" data-label="" data-x="-6" data-y="-14.75" cx="398.75" cy="526.5" r="2.1" fill="rgba(0,0,0,0.3)" stroke="black" stroke-width="0.07142857142857142"/><circle data-type="circle" data-label="" data-x="-5" data-y="5.75" cx="412.75" cy="239.5" r="2.1" fill="rgba(0,0,0,0.3)" stroke="black" stroke-width="0.07142857142857142"/><circle data-type="circle" data-label="" data-x="-18.5" data-y="-3.75" cx="223.75" cy="372.5" r="2.1" fill="rgba(0,0,0,0.3)" stroke="black" stroke-width="0.07142857142857142"/><circle data-type="circle" data-label="" data-x="-6.5" data-y="6.25" cx="391.75" cy="232.5" r="2.1" fill="rgba(0,0,0,0.3)" stroke="black" stroke-width="0.07142857142857142"/><circle data-type="circle" data-label="" data-x="-15.5" data-y="1.75" cx="265.75" cy="295.5" r="2.1" fill="rgba(0,0,0,0.3)" stroke="black" stroke-width="0.07142857142857142"/><circle data-type="circle" data-label="" data-x="-19" data-y="11.25" cx="216.75" cy="162.5" r="2.1" fill="rgba(0,0,0,0.3)" stroke="black" stroke-width="0.07142857142857142"/><circle data-type="circle" data-label="" data-x="-13" data-y="7.25" cx="300.75" cy="218.5" r="2.1" fill="rgba(0,0,0,0.3)" stroke="black" stroke-width="0.07142857142857142"/><circle data-type="circle" data-label="" data-x="-18" data-y="6.25" cx="230.75" cy="232.5" r="2.1" fill="rgba(0,0,0,0.3)" stroke="black" stroke-width="0.07142857142857142"/><circle data-type="circle" data-label="" data-x="-3.5" data-y="-6.25" cx="433.75" cy="407.5" r="2.1" fill="rgba(0,0,0,0.3)" stroke="black" stroke-width="0.07142857142857142"/><circle data-type="circle" data-label="" data-x="-3.5" data-y="-11.75" cx="433.75" cy="484.5" r="2.1" fill="rgba(0,0,0,0.3)" stroke="black" stroke-width="0.07142857142857142"/><circle data-type="circle" data-label="" data-x="-3.5" data-y="1.75" cx="433.75" cy="295.5" r="2.1" fill="rgba(0,0,0,0.3)" stroke="black" stroke-width="0.07142857142857142"/><circle data-type="circle" data-label="" data-x="-4.5" data-y="8.25" cx="419.75" cy="204.5" r="2.1" fill="rgba(0,0,0,0.3)" stroke="black" stroke-width="0.07142857142857142"/><circle data-type="circle" data-label="" data-x="-9" data-y="-8.25" cx="356.75" cy="435.5" r="2.1" fill="rgba(0,0,0,0.3)" stroke="black" stroke-width="0.07142857142857142"/><circle data-type="circle" data-label="" data-x="-5" data-y="-18.25" cx="412.75" cy="575.5" r="2.1" fill="rgba(0,0,0,0.3)" stroke="black" stroke-width="0.07142857142857142"/><circle data-type="circle" data-label="" data-x="-19.5" data-y="9.75" cx="209.75" cy="183.5" r="2.1" fill="rgba(0,0,0,0.3)" stroke="black" stroke-width="0.07142857142857142"/><circle data-type="circle" data-label="" data-x="-11" data-y="-2.75" cx="328.75" cy="358.5" r="2.1" fill="rgba(0,0,0,0.3)" stroke="black" stroke-width="0.07142857142857142"/><circle data-type="circle" data-label="" data-x="-6.5" data-y="-0.25" cx="391.75" cy="323.5" r="2.1" fill="rgba(0,0,0,0.3)" stroke="black" stroke-width="0.07142857142857142"/><circle data-type="circle" data-label="" data-x="-18" data-y="-5.25" cx="230.75" cy="393.5" r="2.1" fill="rgba(0,0,0,0.3)" stroke="black" stroke-width="0.07142857142857142"/><circle data-type="circle" data-label="" data-x="-7" data-y="-5.25" cx="384.75" cy="393.5" r="2.1" fill="rgba(0,0,0,0.3)" stroke="black" stroke-width="0.07142857142857142"/><circle data-type="circle" data-label="" data-x="-3.5" data-y="-9.25" cx="433.75" cy="449.5" r="2.1" fill="rgba(0,0,0,0.3)" stroke="black" stroke-width="0.07142857142857142"/><circle data-type="circle" data-label="" data-x="-14.5" data-y="-1.75" cx="279.75" cy="344.5" r="2.1" fill="rgba(0,0,0,0.3)" stroke="black" stroke-width="0.07142857142857142"/><circle data-type="circle" data-label="" data-x="-10" data-y="-9.75" cx="342.75" cy="456.5" r="2.1" fill="rgba(0,0,0,0.3)" stroke="black" stroke-width="0.07142857142857142"/><circle data-type="circle" data-label="" data-x="-8.5" data-y="-13.25" cx="363.75" cy="505.5" r="2.1" fill="rgba(0,0,0,0.3)" stroke="black" stroke-width="0.07142857142857142"/><circle data-type="circle" data-label="" data-x="-3.5" data-y="-14.25" cx="433.75" cy="519.5" r="2.1" fill="rgba(0,0,0,0.3)" stroke="black" stroke-width="0.07142857142857142"/><g id="crosshair" style="display: none"><line id="crosshair-h" y1="0" y2="640" stroke="#666" stroke-width="0.5"/><line id="crosshair-v" x1="0" x2="640" stroke="#666" stroke-width="0.5"/><text id="coordinates" font-family="monospace" font-size="12" fill="#666"></text></g><script><![CDATA[
              document.currentScript.parentElement.addEventListener('mousemove', (e) => {
                const svg = e.currentTarget;
                const rect = svg.getBoundingClientRect();
                const x = e.clientX - rect.left;
                const y = e.clientY - rect.top;
                const crosshair = svg.getElementById('crosshair');
                const h = svg.getElementById('crosshair-h');
                const v = svg.getElementById('crosshair-v');
                const coords = svg.getElementById('coordinates');
                
                crosshair.style.display = 'block';
                h.setAttribute('x1', '0');
                h.setAttribute('x2', '640');
                h.setAttribute('y1', y);
                h.setAttribute('y2', y);
                v.setAttribute('x1', x);
                v.setAttribute('x2', x);
                v.setAttribute('y1', '0');
                v.setAttribute('y2', '640');

                // Calculate real coordinates using inverse transformation
                const matrix = {"a":14,"c":0,"e":482.75,"b":0,"d":-14,"f":320};
                // Manually invert and apply the affine transform
                // Since we only use translate and scale, we can directly compute:
                // x' = (x - tx) / sx
                // y' = (y - ty) / sy
                const sx = matrix.a;
                const sy = matrix.d;
                const tx = matrix.e; 
                const ty = matrix.f;
                const realPoint = {
                  x: (x - tx) / sx,
                  y: (y - ty) / sy // Flip y back since we used negative scale
                }
                
                coords.textContent = `(${realPoint.x.toFixed(2)}, ${realPoint.y.toFixed(2)})`;
                coords.setAttribute('x', (x + 5).toString());
                coords.setAttribute('y', (y - 5).toString());
              });
              document.currentScript.parentElement.addEventListener('mouseleave', () => {
                document.currentScript.parentElement.getElementById('crosshair').style.display = 'none';
              });
            ]]></script></svg>